<?xml version="1.0" encoding="UTF-8" standalone="no"?>
<!-- Created with Inkscape (http://www.inkscape.org/) -->

<svg
   width="969.18073"
   height="969.18073"
   viewBox="0 0 256.42906 256.42906"
   version="1.1"
   id="svg5715"
   inkscape:version="1.2.2 (b0a8486541, 2022-12-01)"
   sodipodi:docname="logo_rocha (cópia).svg"
   inkscape:export-filename="logo_rocha.png"
   inkscape:export-xdpi="96"
   inkscape:export-ydpi="96"
   xmlns:inkscape="http://www.inkscape.org/namespaces/inkscape"
   xmlns:sodipodi="http://sodipodi.sourceforge.net/DTD/sodipodi-0.dtd"
   xmlns="http://www.w3.org/2000/svg"
   xmlns:svg="http://www.w3.org/2000/svg">
  <sodipodi:namedview
     id="namedview5717"
     pagecolor="#ffffff"
     bordercolor="#666666"
     borderopacity="1.0"
     inkscape:showpageshadow="2"
     inkscape:pageopacity="0.0"
     inkscape:pagecheckerboard="0"
     inkscape:deskcolor="#d1d1d1"
     inkscape:document-units="mm"
     showgrid="false"
     inkscape:zoom="0.53382664"
     inkscape:cx="472.06337"
     inkscape:cy="484.2396"
     inkscape:window-width="1366"
     inkscape:window-height="714"
     inkscape:window-x="0"
     inkscape:window-y="24"
     inkscape:window-maximized="1"
     inkscape:current-layer="layer1" />
  <defs
     id="defs5712" />
  <g
     inkscape:label="Camada 1"
     inkscape:groupmode="layer"
     id="layer1"
     transform="translate(-81.988392,-94.992613)">
    <g
       id="g4424"
       transform="matrix(0.35277777,0,0,-0.35277777,113.78295,110.57876)" />
    <g
       id="g270"
       transform="matrix(5.5914273,0,0,5.5914273,-376.44378,-436.15171)">
      <path
         d="M 127.84951,94.992619 H 81.988399 v 45.861111 h 45.861111 z"
         style="fill:#fff200;fill-opacity:1;fill-rule:nonzero;stroke:none;stroke-width:0.352778"
         id="path4368" />
      <g
         id="g4370"
         transform="matrix(0.35277777,0,0,-0.35277777,121.12221,117.44068)">
        <path
           d="M 0,0 H -0.379"
           style="fill:#231f20;fill-opacity:1;fill-rule:nonzero;stroke:none"
           id="path4372" />
      </g>
      <g
         id="g4374"
         transform="matrix(0.35277777,0,0,-0.35277777,87.832269,125.62177)">
        <path
           d="m 0,0 v -5.022 h 0.581 c 0.351,0 0.592,0.023 0.724,0.071 0.458,0.184 0.688,0.557 0.688,1.117 v 2.637 C 1.993,-0.399 1.626,0 0.894,0 Z M -2.529,2.494 H 1.153 C 3.399,2.488 4.522,1.257 4.522,-1.197 v -2.637 c 0,-1.543 -0.664,-2.559 -1.993,-3.047 l 2.842,-8.161 H 2.601 L 0.321,-7.329 0,-7.373 v -7.669 h -2.529 z"
           style="fill:#231f20;fill-opacity:1;fill-rule:nonzero;stroke:none"
           id="path4376" />
      </g>
      <g
         id="g4378"
         transform="matrix(0.35277777,0,0,-0.35277777,91.516789,125.94336)">
        <path
           d="M 0,0 C 0,0.787 -0.366,1.183 -1.099,1.189 H -1.117 C -1.844,1.189 -2.208,0.792 -2.208,0 v -10.725 c 0,-0.792 0.367,-1.189 1.1,-1.189 0.738,0 1.108,0.397 1.108,1.189 z m 2.529,-10.725 c 0,-2.455 -1.212,-3.685 -3.637,-3.691 -2.419,0 -3.629,1.23 -3.629,3.691 V 0 c 0,2.455 1.21,3.683 3.629,3.683 2.425,0 3.637,-1.228 3.637,-3.683 z"
           style="fill:#231f20;fill-opacity:1;fill-rule:nonzero;stroke:none"
           id="path4380" />
      </g>
      <g
         id="g4382"
         transform="matrix(0.35277777,0,0,-0.35277777,95.343079,129.72677)">
        <path
           d="m 0,0 c 0,-2.455 -1.212,-3.685 -3.637,-3.691 -2.42,0 -3.629,1.23 -3.629,3.691 v 10.725 c 0,2.455 1.209,3.682 3.629,3.682 C -1.212,14.407 0,13.18 0,10.725 v -2.36 h -2.529 v 2.36 c 0,0.786 -0.367,1.183 -1.099,1.189 h -0.018 c -0.728,0 -1.091,-0.397 -1.091,-1.189 V 0 c 0,-0.792 0.366,-1.189 1.1,-1.189 0.739,0 1.108,0.397 1.108,1.189 V 2.359 H 0 Z"
           style="fill:#231f20;fill-opacity:1;fill-rule:nonzero;stroke:none"
           id="path4384" />
      </g>
      <g
         id="g4386"
         transform="matrix(0.35277777,0,0,-0.35277777,95.745499,124.74187)">
        <path
           d="M 0,0 H 2.529 V -7.517 H 4.737 V 0 H 7.266 V -17.536 H 4.737 v 7.517 H 2.529 v -7.517 H 0 Z"
           style="fill:#231f20;fill-opacity:1;fill-rule:nonzero;stroke:none"
           id="path4388" />
      </g>
      <g
         id="g4390"
         transform="matrix(0.35277777,0,0,-0.35277777,103.07544,124.74187)">
        <path
           d="M 0,0 H 6.56 V -2.494 H 2.529 v -5.023 h 3.468 v -2.502 H 2.529 v -5.023 H 6.56 v -2.494 H 0 Z"
           style="fill:#231f20;fill-opacity:1;fill-rule:nonzero;stroke:none"
           id="path4392" />
      </g>
      <g
         id="g4394"
         transform="matrix(0.35277777,0,0,-0.35277777,105.72904,130.92808)">
        <path
           d="M 0,0 V 17.536 H 2.529 V 2.494 H 6.56 V 0 Z"
           style="fill:#231f20;fill-opacity:1;fill-rule:nonzero;stroke:none"
           id="path4396" />
      </g>
      <g
         id="g4398"
         transform="matrix(0.35277777,0,0,-0.35277777,109.38823,124.50244)">
        <path
           d="m 0,0 h -1.403 l 1.269,2.261 H 1.85 Z m -3.208,-0.679 h 6.56 v -2.494 h -4.031 v -5.022 h 3.468 v -2.503 h -3.468 v -5.023 h 4.031 v -2.493 h -6.56 z"
           style="fill:#231f20;fill-opacity:1;fill-rule:nonzero;stroke:none"
           id="path4400" />
      </g>
      <g
         id="g4402"
         transform="matrix(0.35277777,0,0,-0.35277777,113.22109,124.74187)">
        <path
           d="M 0,0 V -2.494 H -2.369 V -17.536 H -4.898 V -2.494 H -7.267 V 0 Z"
           style="fill:#231f20;fill-opacity:1;fill-rule:nonzero;stroke:none"
           id="path4404" />
      </g>
      <g
         id="g4406"
         transform="matrix(0.35277777,0,0,-0.35277777,114.35795,125.62177)">
        <path
           d="m 0,0 v -5.022 h 0.581 c 0.352,0 0.593,0.023 0.724,0.071 0.459,0.184 0.688,0.557 0.688,1.117 v 2.637 C 1.993,-0.399 1.626,0 0.894,0 Z M -2.529,2.494 H 1.153 C 3.399,2.488 4.522,1.257 4.522,-1.197 v -2.637 c 0,-1.543 -0.664,-2.559 -1.993,-3.047 l 2.842,-8.161 H 2.601 L 0.322,-7.329 0,-7.373 v -7.669 h -2.529 z"
           style="fill:#231f20;fill-opacity:1;fill-rule:nonzero;stroke:none"
           id="path4408" />
      </g>
      <path
         d="m 116.4502,124.74202 h 0.89253 v 6.18631 h -0.89253 z"
         style="fill:#231f20;fill-opacity:1;fill-rule:nonzero;stroke:none;stroke-width:0.352778"
         id="path4410" />
      <g
         id="g4412"
         transform="matrix(0.35277777,0,0,-0.35277777,120.35535,129.72677)">
        <path
           d="m 0,0 c 0,-2.455 -1.212,-3.685 -3.637,-3.691 -2.42,0 -3.629,1.23 -3.629,3.691 v 10.725 c 0,2.455 1.209,3.682 3.629,3.682 C -1.212,14.407 0,13.18 0,10.725 v -2.36 h -2.529 v 2.36 c 0,0.786 -0.367,1.183 -1.099,1.189 h -0.018 c -0.727,0 -1.09,-0.397 -1.09,-1.189 V 0 c 0,-0.792 0.366,-1.189 1.099,-1.189 0.739,0 1.108,0.397 1.108,1.189 V 2.359 H 0 Z"
           style="fill:#231f20;fill-opacity:1;fill-rule:nonzero;stroke:none"
           id="path4414" />
      </g>
      <g
         id="g4416"
         transform="matrix(0.35277777,0,0,-0.35277777,101.29279,128.73303)">
        <path
           d="M 0,0 -1.779,11.311 H -5.245 L -7.031,-0.027 -7.853,-6.218 h 2.546 L -4.966,-3.69 -4.95,-3.561 -4.485,0 -3.52,7.291 -2.685,0.973 -2.555,0 l 0.33,-2.5 0.168,-1.263 0.324,-2.455 h 2.555 z"
           style="fill:#231f20;fill-opacity:1;fill-rule:nonzero;stroke:none"
           id="path4418" />
      </g>
      <g
         id="g4420"
         transform="matrix(0.35277777,0,0,-0.35277777,123.24717,128.732)">
        <path
           d="M 0,0 -1.778,11.311 H -5.244 L -7.031,-0.027 -7.854,-6.218 h 2.547 l 0.341,2.528 0.017,0.129 L -4.484,0 -3.52,7.291 -2.685,0.973 -2.555,0 l 0.33,-2.501 0.168,-1.262 0.325,-2.455 h 2.554 z"
           style="fill:#231f20;fill-opacity:1;fill-rule:nonzero;stroke:none"
           id="path4422" />
      </g>
      <path
         d="m 0,0 -9.906,-8.129 4.866,-6.544 5.398,4.101 3.455,-18.209 -5.389,11.449 -5.156,-3.133 -23.616,27.188 -14.476,-16.355 5.04,-6.625 5.408,4.091 3.446,-18.209 -5.389,11.441 -5.157,-3.115 -13.205,15.057 -20.187,-25.889 -1.163,-1.469 h -0.108 c -1.003,4.101 -1.54,8.38 -1.54,12.784 0,29.435 23.858,53.302 53.293,53.302 29.444,0 53.302,-23.867 53.302,-53.302 0,-4.306 -0.51,-8.504 -1.477,-12.515 z"
         style="fill:#231f20;fill-opacity:1;fill-rule:nonzero;stroke:none"
         id="path4426"
         transform="matrix(0.35277777,0,0,-0.35277777,113.78295,110.57876)" />
      <g
         id="g4428"
         transform="matrix(0.35277777,0,0,-0.35277777,91.824619,135.27166)">
        <path
           d="m 0,0 v -0.819 h -4.539 v 6.592 h 4.414 V 4.954 h -3.52 V 2.93 h 3.136 V 2.129 H -3.645 V 0 Z"
           style="fill:#231f20;fill-opacity:1;fill-rule:nonzero;stroke:none"
           id="path4430" />
      </g>
      <g
         id="g4432"
         transform="matrix(0.35277777,0,0,-0.35277777,95.178089,133.23489)">
        <path
           d="m 0,0 v -6.593 h -0.733 l -3.752,4.917 V -6.593 H -5.378 V 0 h 0.732 l 3.752,-4.916 V 0 Z"
           style="fill:#231f20;fill-opacity:1;fill-rule:nonzero;stroke:none"
           id="path4434" />
      </g>
      <g
         id="g4436"
         transform="matrix(0.35277777,0,0,-0.35277777,98.313789,134.38453)">
        <path
           d="m 0,0 h 0.857 v -2.571 c -0.309,-0.27 -0.67,-0.477 -1.08,-0.621 -0.411,-0.145 -0.84,-0.217 -1.287,-0.217 -0.631,0 -1.2,0.145 -1.706,0.437 -0.507,0.292 -0.904,0.695 -1.193,1.206 -0.289,0.512 -0.433,1.088 -0.433,1.729 0,0.64 0.144,1.218 0.433,1.732 0.289,0.516 0.688,0.917 1.197,1.206 0.509,0.289 1.083,0.434 1.72,0.434 0.5,0 0.954,-0.087 1.363,-0.26 C 0.278,2.902 0.625,2.65 0.911,2.317 L 0.357,1.733 c -0.5,0.509 -1.105,0.763 -1.813,0.763 -0.477,0 -0.904,-0.108 -1.282,-0.325 C -3.117,1.955 -3.413,1.653 -3.627,1.267 -3.842,0.881 -3.949,0.446 -3.949,-0.037 c 0,-0.478 0.107,-0.909 0.322,-1.295 0.214,-0.387 0.51,-0.689 0.889,-0.909 0.378,-0.22 0.802,-0.33 1.273,-0.33 0.56,0 1.048,0.141 1.465,0.424 z"
           style="fill:#231f20;fill-opacity:1;fill-rule:nonzero;stroke:none"
           id="path4438" />
      </g>
      <g
         id="g4440"
         transform="matrix(0.35277777,0,0,-0.35277777,101.76491,135.27166)">
        <path
           d="m 0,0 v -0.819 h -4.539 v 6.592 h 4.414 V 4.954 h -3.52 V 2.93 h 3.136 V 2.129 H -3.645 V 0 Z"
           style="fill:#231f20;fill-opacity:1;fill-rule:nonzero;stroke:none"
           id="path4442" />
      </g>
      <g
         id="g4444"
         transform="matrix(0.35277777,0,0,-0.35277777,105.1182,133.23489)">
        <path
           d="m 0,0 v -6.593 h -0.733 l -3.752,4.917 V -6.593 H -5.378 V 0 h 0.732 l 3.752,-4.916 V 0 Z"
           style="fill:#231f20;fill-opacity:1;fill-rule:nonzero;stroke:none"
           id="path4446" />
      </g>
      <g
         id="g4448"
         transform="matrix(0.35277777,0,0,-0.35277777,108.62291,133.23489)">
        <path
           d="m 0,0 v -6.593 h -0.894 v 2.939 H -4.485 V -6.593 H -5.378 V 0 h 0.893 v -2.835 h 3.591 V 0 Z"
           style="fill:#231f20;fill-opacity:1;fill-rule:nonzero;stroke:none"
           id="path4450" />
      </g>
      <g
         id="g4452"
         transform="matrix(0.35277777,0,0,-0.35277777,111.52557,134.71321)">
        <path
           d="M 0,0 -1.349,3.23 -2.698,0 Z m 0.312,-0.754 h -3.323 l -0.688,-1.648 h -0.92 l 2.832,6.592 h 0.885 l 2.84,-6.592 H 1 Z"
           style="fill:#231f20;fill-opacity:1;fill-rule:nonzero;stroke:none"
           id="path4454" />
      </g>
      <g
         id="g4456"
         transform="matrix(0.35277777,0,0,-0.35277777,114.79066,134.43413)">
        <path
           d="M 0,0 C 0.298,0.257 0.447,0.624 0.447,1.102 0.447,1.579 0.298,1.944 0,2.199 -0.298,2.453 -0.729,2.58 -1.295,2.58 h -1.519 v -2.967 h 1.519 c 0.566,0 0.997,0.129 1.295,0.387 m 0.474,-3.193 -1.349,2.025 c -0.167,-0.013 -0.298,-0.019 -0.394,-0.019 h -1.545 v -2.006 h -0.894 v 6.592 h 2.439 c 0.811,0 1.448,-0.204 1.913,-0.611 C 1.108,2.379 1.34,1.817 1.34,1.102 1.34,0.593 1.221,0.159 0.983,-0.198 0.745,-0.556 0.405,-0.816 -0.036,-0.979 l 1.484,-2.214 z"
           style="fill:#231f20;fill-opacity:1;fill-rule:nonzero;stroke:none"
           id="path4458" />
      </g>
      <path
         d="m 116.71972,133.23479 h 0.31503 v 2.32586 h -0.31503 z"
         style="fill:#231f20;fill-opacity:1;fill-rule:nonzero;stroke:none;stroke-width:0.352778"
         id="path4460" />
      <g
         id="g4462"
         transform="matrix(0.35277777,0,0,-0.35277777,119.93745,134.71321)">
        <path
           d="M 0,0 -1.35,3.23 -2.698,0 Z m 0.312,-0.754 h -3.323 l -0.688,-1.648 h -0.92 l 2.832,6.592 h 0.885 l 2.84,-6.592 H 1 Z"
           style="fill:#231f20;fill-opacity:1;fill-rule:nonzero;stroke:none"
           id="path4464" />
      </g>
      <g
         id="g4466"
         transform="matrix(0.35277777,0,0,-0.35277777,88.967789,134.33422)">
        <path
           d="M 0,0 -5.696,3.289 V -3.288 Z"
           style="fill:#231f20;fill-opacity:1;fill-rule:nonzero;stroke:none"
           id="path4468" />
      </g>
      <g
         id="g4470"
         transform="matrix(0.35277777,0,0,-0.35277777,121.53048,134.31425)">
        <path
           d="M 0,0 5.696,-3.288 V 3.289 Z"
           style="fill:#231f20;fill-opacity:1;fill-rule:nonzero;stroke:none"
           id="path4472" />
      </g>
    </g>
  </g>
</svg>
